<svg width="16" height="16" viewBox="0 0 16 16" fill="none" xmlns="http://www.w3.org/2000/svg">
<path d="M8.00004 13.4036C10.9843 13.4036 13.4036 10.9844 13.4036 8.00012C13.4036 5.01584 10.9843 2.59661 8.00004 2.59661C5.01577 2.59661 2.59653 5.01584 2.59653 8.00012C2.59653 10.9844 5.01577 13.4036 8.00004 13.4036ZM8.00004 14.6668C4.31814 14.6668 1.33337 11.682 1.33337 8.00012C1.33337 4.31822 4.31814 1.33345 8.00004 1.33345C11.6819 1.33345 14.6667 4.31822 14.6667 8.00012C14.6667 11.682 11.6819 14.6668 8.00004 14.6668ZM8.00004 6.4186C7.51558 6.4186 7.12285 6.02587 7.12285 5.54141C7.12285 5.05695 7.51558 4.66421 8.00004 4.66421C8.4845 4.66421 8.87723 5.05695 8.87723 5.54141C8.87723 6.02587 8.4845 6.4186 8.00004 6.4186ZM7.36846 8.30003C7.36846 7.93919 7.65123 7.64667 8.00004 7.64667C8.34885 7.64667 8.63162 7.93919 8.63162 8.30003V10.853C8.63162 11.2138 8.34885 11.5063 8.00004 11.5063C7.65123 11.5063 7.36846 11.2138 7.36846 10.853V8.30003Z" fill="#FF645F"/>
</svg>
